<?xml version="1.0" encoding="UTF-8" standalone="no"?><!DOCTYPE svg PUBLIC "-//W3C//DTD SVG 1.1//EN" "http://www.w3.org/Graphics/SVG/1.1/DTD/svg11.dtd"><svg width="170" height="48" viewBox="0 0 170 48" version="1.1" xmlns="http://www.w3.org/2000/svg" xmlns:xlink="http://www.w3.org/1999/xlink" xml:space="preserve" xmlns:serif="http://www.serif.com/" style="fill-rule:evenodd;clip-rule:evenodd;stroke-linejoin:round;stroke-miterlimit:1.41421;"><g><path d="M26.667,21.894c-0.037,-0.151 -0.128,-0.606 -0.089,-0.727c0.039,-0.121 0.134,-0.364 0.203,-0.565c0.357,-1.039 0.194,-2.127 0.08,-2.375c-0.023,-0.046 -0.071,-0.052 -0.105,-0.059c-0.506,-0.076 -0.922,0.25 -1.427,0.857c-0.202,0.241 -0.428,0.427 -0.488,0.094c-0.037,-0.22 0.136,-0.67 -0.07,-0.649c-0.476,0.049 -0.785,0.323 -1.053,0.677c-0.208,0.272 -0.224,0.414 -0.465,0.421c-0.48,0.024 -0.706,0.043 -1.075,0.132c-0.373,0.086 -0.687,0.227 -0.909,0.364c-0.281,0.173 -0.489,0.435 -1.146,0.441c-1.049,0.008 -2.383,0.034 -2.9,0.131c-0.531,0.101 -0.607,0.441 -0.325,0.911c0.333,0.553 0.429,1.74 1.097,1.908c0.178,0.378 0.299,0.664 0.471,0.648c0.061,-0.012 0.121,-0.196 0.164,-0.364c0.092,-0.371 0.451,-0.386 0.687,-0.4c0.598,-0.03 1.062,0.003 1.465,0.23c0.277,0.158 0.412,0.434 0.358,0.542c-0.091,0.192 -0.29,-0.07 -1.315,0.138c-0.579,0.116 -0.934,0.425 -1.683,0.425c-1.111,0 -1.656,-0.753 -1.852,-1.424c-0.099,-0.336 -0.17,-0.654 -0.568,-0.281c-0.51,0.477 -0.547,1.386 -0.019,1.941c0.35,0.368 0.84,0.559 1.43,0.612c0.181,0.014 0.542,0.023 0.836,0.011c0,0 -0.084,0.229 0.043,0.433c0.127,0.205 0.508,0.363 1.115,0.182c0.869,-0.258 1.615,-0.499 2.213,-0.052c0.109,0.08 0.242,0.231 0.242,0.327c0,0.176 -0.65,0.686 -2.478,1.179c-2.246,0.603 -2.774,2.107 -2.546,2.931c0.021,0.075 0.069,0.149 0.126,0.151c0.062,0.003 0.407,-0.198 0.603,-0.234c0.383,-0.068 0.221,0.21 0.173,0.56c-0.175,1.247 1.598,2.818 3.164,3.904c0.867,0.599 1.332,0.805 1.551,0.805c0.223,0 0.687,-0.169 1.552,-0.805c2.44,-1.805 4.058,-4.329 3.796,-5.675c-0.148,-0.763 -0.546,-1.226 -0.356,-1.351c0.219,-0.14 0.691,0.226 0.794,0.162c0.245,-0.153 0.357,-1.565 -0.094,-3.043c-0.43,-1.403 -0.912,-1.965 -1.2,-3.113m-4.585,-0.467c-0.207,0.03 -0.463,-0.081 -0.405,-0.156c0.025,-0.031 0.088,-0.116 0.039,-0.22c-0.068,-0.137 -0.283,-0.139 -0.421,-0.052c0.112,-0.254 0.47,-0.422 0.776,-0.422c0.431,0 0.531,0.245 0.504,0.434c-0.03,0.226 -0.227,0.375 -0.493,0.416" style="fill:#2d4b8a;fill-rule:nonzero;"/><path d="M8.165,35.944c-4.781,0.302 -8.165,-3.727 -8.165,-7.677c0,-1.5 0.219,-2.292 0.619,-3.125c0.339,-0.713 0.73,-1.195 0.964,-1.193c0.228,0 0.298,0.334 0.335,0.532c0.927,4.841 4.341,7.65 6.666,7.688c0.682,0.011 1.511,-0.145 1.584,-0.477c0.107,-0.475 -0.709,-1.486 -0.709,-3.383c0,-0.77 0.338,-2.165 2.466,-2.248c1.875,-0.074 2.786,1.683 2.786,3.235c0,3.221 -2.37,6.383 -6.546,6.648" style="fill:#29609f;fill-rule:nonzero;"/><path d="M1.908,21.129c0.382,-2.827 1.976,-4.929 3.747,-5.934c2.824,-1.605 5.623,-0.998 7.584,-0.554c0.291,0.065 0.527,0.024 0.618,-0.155c0.075,-0.146 0.023,-0.31 -0.208,-0.553c-0.922,-0.971 -3.044,-3.082 -3.31,-3.304c-0.647,-0.538 -1.715,-0.859 -2.549,-0.859c-4.77,0 -7.79,3.629 -7.79,7.668c0,1.057 0.297,2.423 0.62,3.191c0.302,0.713 0.636,1.344 0.902,1.344c0.305,0 0.329,-0.43 0.386,-0.844" style="fill:#3678b1;fill-rule:nonzero;"/><path d="M29.329,13.34c-0.133,-0.101 -0.163,-0.303 -0.133,-0.609c0.203,-2.029 -0.003,-4.024 -0.409,-4.958c-0.522,-1.206 -1.768,-2.961 -2.743,-3.982c-1.267,-1.327 -1.721,-1.692 -2.304,-2.134c-0.145,-0.109 -0.462,-0.29 -0.462,-0.437c0,-0.161 0.244,-0.33 0.537,-0.467c0.547,-0.255 1.349,-0.598 2.813,-0.725c1.742,-0.149 4.223,0.226 6.099,2.621c1.056,1.353 1.206,2.988 1.206,4.095c0,1.318 -0.211,2.503 -0.838,3.186c-0.927,1.013 -2.913,2.988 -3.174,3.223c-0.126,0.116 -0.415,0.32 -0.592,0.187" style="fill:#3678b1;fill-rule:nonzero;"/><path d="M15.019,13.34c0.134,-0.101 0.163,-0.303 0.134,-0.609c-0.203,-2.029 0.003,-4.024 0.409,-4.958c0.522,-1.206 1.768,-2.961 2.743,-3.982c1.266,-1.327 1.721,-1.692 2.304,-2.134c0.145,-0.109 0.462,-0.29 0.462,-0.437c0,-0.161 -0.244,-0.33 -0.537,-0.467c-0.547,-0.255 -1.349,-0.598 -2.813,-0.725c-1.742,-0.149 -4.223,0.226 -6.099,2.621c-1.056,1.353 -1.205,2.988 -1.205,4.095c0,1.318 0.21,2.503 0.837,3.186c0.927,1.013 2.913,2.988 3.174,3.223c0.126,0.116 0.415,0.32 0.591,0.187" style="fill:#29609f;fill-rule:nonzero;"/><path d="M9.683,15.253c2.12,0 4.785,0.732 5.711,1.446c0.295,0.227 0.391,0.555 -0.027,0.973l-2.073,2.073c-0.39,0.39 -0.543,0.619 -0.543,1.427l0,3.179c0,0.384 -0.154,0.548 -0.721,0.614c-0.146,0.019 -0.444,0.035 -0.668,0.055c-0.769,0.072 -1.767,0.354 -2.469,1.452c-0.903,1.417 -0.349,3.254 -0.102,3.965c0.18,0.517 0.149,0.826 -0.627,0.67c-2.152,-0.431 -5.472,-4.385 -5.277,-8.769c0.202,-4.551 3.199,-7.085 6.796,-7.085" style="fill:#f8af15;fill-rule:nonzero;"/><path d="M36.184,35.944c4.781,0.302 8.164,-3.727 8.164,-7.677c0,-1.5 -0.218,-2.292 -0.618,-3.125c-0.339,-0.713 -0.73,-1.195 -0.964,-1.193c-0.229,0 -0.299,0.334 -0.336,0.532c-0.927,4.841 -4.34,7.65 -6.665,7.688c-0.683,0.011 -1.512,-0.145 -1.584,-0.477c-0.107,-0.475 0.708,-1.486 0.708,-3.383c0,-0.77 -0.337,-2.165 -2.465,-2.248c-1.875,-0.074 -2.787,1.683 -2.787,3.235c0,3.221 2.372,6.383 6.547,6.648" style="fill:#3678b1;fill-rule:nonzero;"/><path d="M42.442,21.129c-0.383,-2.827 -1.978,-4.929 -3.749,-5.934c-2.823,-1.605 -5.622,-0.998 -7.583,-0.554c-0.291,0.065 -0.527,0.024 -0.617,-0.155c-0.075,-0.146 -0.024,-0.31 0.207,-0.553c0.922,-0.971 3.044,-3.082 3.311,-3.304c0.646,-0.538 1.713,-0.859 2.548,-0.859c4.771,0 7.789,3.629 7.789,7.668c0,1.057 -0.296,2.423 -0.621,3.191c-0.3,0.713 -0.634,1.344 -0.9,1.344c-0.306,0 -0.329,-0.43 -0.385,-0.844" style="fill:#29609f;fill-rule:nonzero;"/><path d="M34.666,15.253c-2.12,0 -4.786,0.732 -5.711,1.446c-0.295,0.227 -0.391,0.555 0.027,0.973l2.072,2.073c0.39,0.39 0.543,0.619 0.543,1.427l0,3.179c0,0.384 0.156,0.548 0.722,0.614c0.146,0.019 0.444,0.035 0.667,0.055c0.77,0.072 1.768,0.354 2.469,1.452c0.904,1.417 0.35,3.254 0.103,3.965c-0.179,0.517 -0.15,0.826 0.627,0.67c2.153,-0.431 5.472,-4.385 5.276,-8.769c-0.2,-4.551 -3.198,-7.085 -6.795,-7.085" style="fill:#f8af15;fill-rule:nonzero;"/><path d="M25.902,37.42c1.072,-0.808 1.651,-1.351 2.548,-2.269c0.412,-0.421 0.886,-0.466 1.383,0.012c0.69,0.666 1.54,1.211 2.781,1.313c0.498,0.042 0.764,-0.118 1.116,0.054c0.178,0.085 0.35,0.326 0.362,0.739c0.049,1.639 -0.735,3.54 -3.111,3.965c-1.54,0.274 -3.087,-0.193 -3.853,-0.909c-0.523,-0.489 -1.101,-1.037 -1.436,-1.49c-0.35,-0.472 -0.334,-1.006 0.21,-1.415" style="fill:#f8af15;fill-rule:nonzero;"/><path d="M18.448,37.42c-1.074,-0.808 -1.652,-1.351 -2.549,-2.269c-0.412,-0.421 -0.886,-0.466 -1.383,0.012c-0.689,0.666 -1.54,1.211 -2.782,1.313c-0.497,0.042 -0.763,-0.118 -1.115,0.054c-0.178,0.085 -0.35,0.326 -0.362,0.739c-0.05,1.639 0.735,3.54 3.111,3.965c1.54,0.274 3.087,-0.193 3.852,-0.909c0.524,-0.489 1.101,-1.037 1.437,-1.49c0.351,-0.472 0.334,-1.006 -0.209,-1.415" style="fill:#f8af15;fill-rule:nonzero;"/><path d="M16.383,8.787c0.205,-1.022 1.487,-2.952 2.735,-4.261c1.272,-1.338 2.38,-2.373 3.057,-2.373c0.675,0 1.783,1.035 3.054,2.373c1.249,1.309 2.532,3.239 2.736,4.261c0.204,1.022 0.481,3.153 -0.258,6.239c-0.209,0.874 -0.693,0.957 -1.239,0.957l-8.587,0c-0.548,0 -1.03,-0.083 -1.24,-0.957c-0.739,-3.086 -0.461,-5.217 -0.258,-6.239" style="fill:#f49d1d;fill-rule:nonzero;"/><path d="M22.174,39.305c0.614,0 1.093,-0.374 1.507,-0.428c0.349,-0.045 0.575,0.064 0.897,0.385c0.465,0.465 1.135,1.195 1.581,1.741c0.32,0.394 0.756,1.053 0.157,2.585c-0.733,1.883 -3.369,4.363 -4.141,4.363c-0.773,0 -3.408,-2.48 -4.142,-4.363c-0.599,-1.532 -0.163,-2.191 0.158,-2.585c0.445,-0.546 1.116,-1.276 1.581,-1.741c0.321,-0.321 0.547,-0.43 0.896,-0.385c0.415,0.054 0.893,0.428 1.506,0.428" style="fill:#f49d1d;fill-rule:nonzero;"/><path d="M65.001,15.659c-3.346,0 -3.877,1.325 -3.877,2.121c0,3.808 9.708,2.714 9.708,10.005c0,4.837 -4.174,7.156 -9.543,7.156c-4.705,0 -5.896,-2.319 -5.896,-4.374c0,-0.397 0,-0.695 0.1,-1.092c0.098,-0.332 0.331,-0.498 0.793,-0.265c1.725,0.827 3.249,1.16 4.806,1.16c2.451,0 4.372,-0.697 4.372,-2.385c0,-3.843 -9.707,-3.049 -9.707,-10.172c0,-4.508 3.215,-6.726 9.543,-6.726c1.059,0 2.749,0.132 3.908,0.43c0.299,0.066 0.432,0.298 0.398,0.564l-0.529,3.545c-0.067,0.397 -0.267,0.43 -0.63,0.364c-1.16,-0.233 -2.519,-0.331 -3.446,-0.331" style="fill:#2d4b8a;fill-rule:nonzero;"/><path d="M112.125,11.252c3.315,0 4.107,1.125 4.805,3.047l5.962,16.732c0.632,1.723 1.128,2.485 1.461,2.95c0.097,0.132 0.097,0.331 -0.035,0.43c-0.43,0.333 -1.259,0.696 -2.615,0.696c-2.29,0 -3.646,-0.828 -4.31,-2.782l-0.727,-2.187c-0.1,-0.332 -0.267,-0.433 -0.597,-0.433l-8.713,0c-0.298,0 -0.432,0.134 -0.531,0.433l-1.36,4.008c-0.1,0.265 -0.263,0.464 -0.662,0.464l-4.405,0c-0.4,0 -0.663,-0.364 -0.531,-0.763l6.394,-18.056c-1.755,-0.264 -2.551,-1.359 -2.749,-3.811c-0.034,-0.395 0.231,-0.564 0.628,-0.564c2.751,0 5.236,-0.164 7.985,-0.164m3.08,13.451l-2.615,-8.318c-0.167,-0.529 -0.397,-0.76 -0.829,-0.76l-0.43,0l-2.916,9.111c-0.067,0.231 0.034,0.364 0.297,0.364l6.23,0c0.263,0 0.333,-0.133 0.263,-0.397" style="fill:#2d4b8a;fill-rule:nonzero;"/><path d="M125.858,11.98c-0.033,-0.397 0.233,-0.562 0.632,-0.562c1.755,-0.035 3.246,-0.167 4.571,-0.167c1.624,0 2.75,0.895 2.75,2.751l0,11.596c0,3.114 1.59,4.737 4.407,4.737c2.816,0 4.406,-1.623 4.406,-4.737l0,-13.684c0,-0.265 0.231,-0.496 0.499,-0.496l4.207,0c0.263,0 0.496,0.231 0.496,0.496l0,14.777c0,5.268 -3.545,8.217 -9.608,8.217c-6.329,0 -9.609,-2.684 -9.609,-8.217l0,-10.899c-1.755,-0.267 -2.55,-1.362 -2.751,-3.812" style="fill:#2d4b8a;fill-rule:nonzero;"/><path d="M163.87,16.354l0,10.966c0,2.451 0.529,3.048 1.922,3.247c0.365,0.068 0.994,0.068 1.358,0.033c0.498,-0.064 0.663,0.232 0.564,0.829c-0.265,1.623 -1.823,3.512 -4.539,3.512c-3.212,0 -4.506,-1.691 -4.506,-6.03l0,-12.557c0,-0.2 -0.134,-0.333 -0.329,-0.333l-5.302,0c-0.267,0 -0.498,-0.231 -0.498,-0.494l0,-3.613c0,-0.266 0.231,-0.498 0.498,-0.498l16.468,0c0.263,0 0.494,0.232 0.494,0.498l0,3.613c0,0.263 -0.231,0.494 -0.494,0.494l-5.304,0c-0.198,0 -0.332,0.134 -0.332,0.333" style="fill:#2d4b8a;fill-rule:nonzero;"/><path d="M79.955,11.252c1.558,0 2.718,1.16 2.718,2.717l0,7.918l7.256,-9.808c0.298,-0.428 0.759,-0.663 1.391,-0.663l4.076,0c0.596,0 0.894,0.432 0.53,0.928l-7.458,9.841c-0.097,0.134 -0.097,0.265 0,0.398c2.984,3.843 6.959,9.474 8.518,10.933c0.298,0.267 0.2,0.498 0,0.662c-0.498,0.398 -1.424,0.93 -2.683,0.93c-2.485,0 -3.811,-1.027 -5.203,-3.016l-6.427,-9.146l0,11.166c0,0.267 -0.233,0.498 -0.497,0.498l-4.207,0c-0.267,0 -0.498,-0.231 -0.498,-0.498l0,-18.32c-1.756,-0.267 -2.552,-1.36 -2.751,-3.812c-0.032,-0.396 0.233,-0.564 0.631,-0.564c1.623,0 2.981,-0.164 4.604,-0.164" style="fill:#2d4b8a;fill-rule:nonzero;"/></g></svg>